<svg width="252" height="327" viewBox="0 0 252 327" fill="none" xmlns="http://www.w3.org/2000/svg">
<path d="M249.43 252.15L224.79 173.15L201.88 112.77C193.82 90.12 176.95 67.77 149.23 47.77C151.41 58.7027 149.746 70.053 144.52 79.9C125 57.31 105.61 34.32 112.15 0C84.6331 17.1492 63.7267 43.1025 52.83 73.64C49.6395 82.4779 47.2956 91.5989 45.83 100.88L27.32 173.17L2.68 252.17C-0.150205 261.052 -0.758606 270.493 0.908113 279.666C2.57483 288.838 6.46579 297.461 12.24 304.78C17.7287 311.722 24.7193 317.329 32.6865 321.181C40.6538 325.033 49.3904 327.03 58.24 327.02H194.24C203.287 327.023 212.208 324.898 220.282 320.818C228.356 316.737 235.358 310.816 240.722 303.53C246.086 296.245 249.662 287.801 251.16 278.879C252.659 269.957 252.039 260.808 249.35 252.17L249.43 252.15ZM219.63 287.92C216.747 291.925 212.942 295.178 208.536 297.402C204.131 299.627 199.255 300.758 194.32 300.7H58.32C53.4582 300.749 48.6495 299.685 44.2613 297.592C39.873 295.498 36.0212 292.429 33 288.62C29.8313 284.653 27.6966 279.962 26.7873 274.967C25.878 269.972 26.2225 264.829 27.79 260L52.42 181C54.0214 175.693 57.0228 170.915 61.1087 167.169C65.1946 163.423 70.2142 160.846 75.64 159.71V138.45C75.6426 133.389 76.6422 128.379 78.5815 123.704C80.5209 119.03 83.3621 114.784 86.9428 111.207C90.5236 107.631 94.7738 104.796 99.4506 102.862C104.127 100.929 109.139 99.9361 114.2 99.94H137.91C142.972 99.9387 147.985 100.935 152.662 102.871C157.339 104.807 161.589 107.646 165.168 111.225C168.748 114.803 171.588 119.053 173.525 123.729C175.463 128.406 176.46 133.418 176.46 138.48V159.71C181.887 160.843 186.908 163.419 190.995 167.165C195.081 170.912 198.081 175.691 199.68 181L224.32 260C225.839 264.688 226.206 269.673 225.389 274.534C224.573 279.394 222.597 283.985 219.63 287.92Z" fill="white"/>
<path d="M137.53 128.87H113.69C111.158 128.861 108.719 129.82 106.87 131.55C105.831 132.452 105.006 133.574 104.455 134.835C103.905 136.097 103.644 137.465 103.69 138.84V157.06L113.93 156.06C114.14 156.06 114.36 156.06 114.58 156.06H136.64C136.87 156.06 137.1 156.06 137.33 156.06L147.53 157.06V138.87C147.53 136.218 146.476 133.674 144.601 131.799C142.726 129.924 140.182 128.87 137.53 128.87Z" fill="white"/>
</svg>
